Motion_sv04_j
version=1
nRows=8
nColumns=43
inDegrees=yes
endheader
time	pelvis_tilt	pelvis_list	pelvis_rotation	pelvis_tx	pelvis_ty	pelvis_tz	hip_flexion_r	hip_adduction_r	hip_rotation_r	knee_angle_r	ankle_angle_r	subtalar_angle_r	mtp_angle_r	hip_flexion_l	hip_adduction_l	hip_rotation_l	knee_angle_l	ankle_angle_l	subtalar_angle_l	mtp_angle_l	lumbar_extension	lumbar_bending	lumbar_rotation	neck_flexion	neck_lateral_bending	neck_rotation	arm_flex_r	arm_add_r	arm_rot_r	elbow_flex_r	pro_sup_r	wrist_flex_r	wrist_dev_r	hand_finger_flex_r	arm_flex_l	arm_add_l	arm_rot_l	elbow_flex_l	pro_sup_l	wrist_flex_l	wrist_dev_l	hand_finger_flex_l
      2.44500000	     -5.95209283	    -25.91085481	    -90.77852032	     -0.10352968	      0.97318700	     -0.48155202	    -28.68638147	      6.88972977	    -20.60411578	     -8.03150258	     15.31144184	      0.31595155	      0.72263338	     18.28799722	    -16.31427729	      2.73122306	    -49.82581148	     -5.99193452	     -9.89105723	      5.85799767	    -43.35409202	     11.77688892	     10.20029302	    -25.58747004	     -6.32266277	     -7.66509873	    -13.40088358	    -16.08076675	    -14.04984101	     67.85072807	    120.01967132	      6.14434408	      2.89564617	    -15.42379933	    -31.15015668	     -5.51805887	    -16.26046206	    103.02042604	    142.41473900	    -18.41295719	     -6.02218046	      9.69901900
      2.44750000	     -5.97308221	    -25.88355612	    -90.80732612	     -0.10368039	      0.97320639	     -0.48205784	    -28.62991893	      6.91568503	    -20.58092250	     -8.01049960	     15.27469313	      0.29128890	      0.75053771	     18.51188327	    -16.36223680	      2.87781301	    -50.68267429	     -5.47166899	    -10.92550073	      5.90984874	    -43.32504144	     11.73848179	     10.20273741	    -25.58785152	     -6.26504136	     -7.65291301	    -13.38905952	    -16.04444708	    -14.07603859	     67.85999293	    120.17101648	      6.25845732	      2.94870095	    -15.49159741	    -31.17313920	     -5.51348443	    -16.26393820	    103.09226415	    142.24459777	    -18.43006888	     -6.05833300	      9.71108488
      2.45000000	     -6.10363553	    -25.64055996	    -90.72115389	     -0.10348815	      0.97290182	     -0.48263630	    -28.28840648	      7.08756641	    -20.60321150	     -8.08306977	     15.23508237	      0.20392410	      0.87645312	     19.10807555	    -16.36007688	      3.36770589	    -51.59778217	     -5.57088286	    -12.72248487	      5.84106810	    -43.05412299	     11.93495682	     10.16333851	    -25.64390085	     -6.29909132	     -7.59088010	    -13.37213279	    -16.01539171	    -14.18544055	     67.83843871	    120.56590599	      6.63912723	      2.99349891	    -15.75334443	    -31.12124304	     -5.46845218	    -16.23078038	    103.01913633	    141.76038158	    -18.40246503	     -6.13209236	      9.74896005
      2.45250000	     -6.06817039	    -25.63966886	    -90.75403193	     -0.10377180	      0.97290414	     -0.48307913	    -28.27556066	      7.05643358	    -20.59450622	     -8.04850762	     15.21608309	      0.19253019	      0.90547760	     19.25186911	    -16.40334716	      3.42953630	    -52.44461341	     -4.87504200	    -13.37684332	      5.90664872	    -43.04634215	     11.81349295	     10.15114445	    -25.58620313	     -6.22336666	     -7.62716112	    -13.37005041	    -15.93395168	    -14.21823653	     67.83043379	    120.60970078	      6.68662348	      2.97380795	    -15.82918436	    -31.15905310	     -5.48417888	    -16.26083954	    103.12208112	    141.69174711	    -18.43439120	     -6.17621865	      9.74218615
      2.45500000	     -6.13660851	    -25.60910583	    -90.79474707	     -0.10396688	      0.97289009	     -0.48345778	    -28.23018621	      7.12223531	    -20.56839891	     -8.03691925	     15.22090678	      0.21551826	      0.96488702	     19.44132554	    -16.49489620	      3.60264523	    -53.29258096	     -4.29145322	    -14.37303399	      5.90901712	    -42.99902000	     11.81176417	     10.16708511	    -25.55559853	     -6.16168092	     -7.58810109	    -13.36287864	    -15.87613262	    -14.25506659	     67.77200454	    120.65446362	      6.78458232	      2.94037383	    -15.94580603	    -31.15464220	     -5.46116988	    -16.30119726	    103.14693444	    141.56407767	    -18.44791154	     -6.20396327	      9.73821102
      2.45750000	     -6.17772414	    -25.58631236	    -90.85419256	     -0.10409447	      0.97288567	     -0.48400740	    -28.17440965	      7.14392702	    -20.55422346	     -8.02402646	     15.18084653	      0.24385817	      1.00983273	     19.64005766	    -16.55769721	      3.74682838	    -54.18142318	     -3.82854703	    -15.23656640	      5.89088231	    -42.98822771	     11.77233733	     10.19017165	    -25.54442767	     -6.13441652	     -7.54914343	    -13.35225603	    -15.84215151	    -14.27177415	     67.77263835	    120.66607713	      6.85518102	      2.89475577	    -16.04165669	    -31.18738379	     -5.44209452	    -16.31007822	    103.25843671	    141.46446025	    -18.47827948	     -6.24822892	      9.72944334
      2.46000000	     -6.27233075	    -25.52786235	    -90.90134558	     -0.10431322	      0.97280961	     -0.48445150	    -28.08550218	      7.23588301	    -20.53606279	     -8.02349369	     15.16753022	      0.28698502	      1.07843338	     19.88002562	    -16.66040324	      3.95509271	    -55.05345392	     -3.39629840	    -16.27988225	      5.82217275	    -42.92673952	     11.78942132	     10.20349105	    -25.50228622	     -6.09740349	     -7.47863142	    -13.33703462	    -15.79511170	    -14.27889588	     67.72797067	    120.66389180	      6.94761560	      2.83645578	    -16.16433419	    -31.18593948	     -5.40765058	    -16.35744135	    103.29122247	    141.34160562	    -18.52896299	     -6.27209502	      9.71011232
      2.46250000	     -6.49964173	    -25.24767305	    -90.86975076	     -0.10407093	      0.97243332	     -0.48506575	    -27.69727385	      7.47098749	    -20.59830164	     -8.10470194	     15.12405959	      0.32827503	      1.29079517	     20.53026288	    -16.75635851	      4.43856980	    -56.03649708	     -3.55832643	    -17.76615967	      5.42139354	    -42.64202589	     12.04681715	     10.18236769	    -25.53726894	     -6.14462174	     -7.31389400	    -13.27432212	    -15.82854250	    -14.28192770	     67.58755613	    120.66508707	      7.18482834	      2.71774680	    -16.53136765	    -31.16451803	     -5.31433330	    -16.32697081	    103.23666028	    141.08864851	    -18.68080610	     -6.33928308	      9.64588315
